<mxfile host="app.diagrams.net" agent="Mozilla/5.0 (Windows NT 10.0; Win64; x64) AppleWebKit/537.36 (KHTML, like Gecko) Chrome/135.0.0.0 Safari/537.36" version="26.2.14">
  <diagram name="Página-1" id="qQy70fFk9bXze8SLNpru">
    <mxGraphModel dx="1613" dy="687" grid="1" gridSize="10" guides="1" tooltips="1" connect="1" arrows="1" fold="1" page="1" pageScale="1" pageWidth="827" pageHeight="1169" math="0" shadow="0">
      <root>
        <mxCell id="0" />
        <mxCell id="1" parent="0" />
        <mxCell id="-7v5t3_Li5tCfErxdhm0-1" value="Actor" style="shape=umlActor;verticalLabelPosition=bottom;verticalAlign=top;html=1;outlineConnect=0;" vertex="1" parent="1">
          <mxGeometry x="-720" y="70" width="30" height="60" as="geometry" />
        </mxCell>
        <mxCell id="-7v5t3_Li5tCfErxdhm0-2" value="" style="rounded=0;whiteSpace=wrap;html=1;" vertex="1" parent="1">
          <mxGeometry x="-610" y="80" width="280" height="300" as="geometry" />
        </mxCell>
        <mxCell id="-7v5t3_Li5tCfErxdhm0-3" value="Inicio del juego" style="rounded=0;whiteSpace=wrap;html=1;" vertex="1" parent="1">
          <mxGeometry x="-530" y="160" width="120" height="60" as="geometry" />
        </mxCell>
        <mxCell id="-7v5t3_Li5tCfErxdhm0-4" value="Opciones" style="rounded=0;whiteSpace=wrap;html=1;" vertex="1" parent="1">
          <mxGeometry x="-530" y="230" width="120" height="60" as="geometry" />
        </mxCell>
        <mxCell id="-7v5t3_Li5tCfErxdhm0-5" value="Salir del juego" style="rounded=0;whiteSpace=wrap;html=1;" vertex="1" parent="1">
          <mxGeometry x="-530" y="300" width="120" height="60" as="geometry" />
        </mxCell>
        <mxCell id="-7v5t3_Li5tCfErxdhm0-7" value="&lt;font style=&quot;font-size: 18px;&quot;&gt;Inicio&lt;/font&gt;" style="text;html=1;align=center;verticalAlign=middle;whiteSpace=wrap;rounded=0;" vertex="1" parent="1">
          <mxGeometry x="-500" y="100" width="60" height="30" as="geometry" />
        </mxCell>
        <mxCell id="-7v5t3_Li5tCfErxdhm0-8" value="" style="rounded=0;whiteSpace=wrap;html=1;" vertex="1" parent="1">
          <mxGeometry x="-770" y="510" width="320" height="120" as="geometry" />
        </mxCell>
        <mxCell id="-7v5t3_Li5tCfErxdhm0-9" value="&lt;font style=&quot;font-size: 18px;&quot;&gt;1-Inicio del juego&lt;/font&gt;" style="text;html=1;align=center;verticalAlign=middle;whiteSpace=wrap;rounded=0;" vertex="1" parent="1">
          <mxGeometry x="-695" y="520" width="170" height="30" as="geometry" />
        </mxCell>
        <mxCell id="-7v5t3_Li5tCfErxdhm0-10" value="1.1 Inicio del juego" style="rounded=0;whiteSpace=wrap;html=1;" vertex="1" parent="1">
          <mxGeometry x="-670" y="555" width="120" height="60" as="geometry" />
        </mxCell>
        <mxCell id="-7v5t3_Li5tCfErxdhm0-11" value="" style="rounded=0;whiteSpace=wrap;html=1;" vertex="1" parent="1">
          <mxGeometry x="-350" y="470" width="300" height="280" as="geometry" />
        </mxCell>
        <mxCell id="-7v5t3_Li5tCfErxdhm0-12" value="" style="rounded=0;whiteSpace=wrap;html=1;" vertex="1" parent="1">
          <mxGeometry x="-770" y="680" width="315" height="120" as="geometry" />
        </mxCell>
        <mxCell id="-7v5t3_Li5tCfErxdhm0-13" value="2.1 Volumen" style="rounded=0;whiteSpace=wrap;html=1;" vertex="1" parent="1">
          <mxGeometry x="-260" y="530" width="120" height="60" as="geometry" />
        </mxCell>
        <mxCell id="-7v5t3_Li5tCfErxdhm0-14" value="2.2 Guía del juego" style="rounded=0;whiteSpace=wrap;html=1;" vertex="1" parent="1">
          <mxGeometry x="-260" y="600" width="120" height="60" as="geometry" />
        </mxCell>
        <mxCell id="-7v5t3_Li5tCfErxdhm0-15" value="2.3 Salir (lleva a 1)" style="rounded=0;whiteSpace=wrap;html=1;" vertex="1" parent="1">
          <mxGeometry x="-260" y="670" width="120" height="60" as="geometry" />
        </mxCell>
        <mxCell id="-7v5t3_Li5tCfErxdhm0-16" value="&lt;span style=&quot;font-size: 18px;&quot;&gt;2-Opciones&lt;/span&gt;" style="text;html=1;align=center;verticalAlign=middle;whiteSpace=wrap;rounded=0;" vertex="1" parent="1">
          <mxGeometry x="-250" y="480" width="100" height="30" as="geometry" />
        </mxCell>
        <mxCell id="-7v5t3_Li5tCfErxdhm0-17" value="3.1 Salir del juego" style="rounded=0;whiteSpace=wrap;html=1;" vertex="1" parent="1">
          <mxGeometry x="-672.5" y="720" width="120" height="60" as="geometry" />
        </mxCell>
        <mxCell id="-7v5t3_Li5tCfErxdhm0-18" value="&lt;font style=&quot;font-size: 18px;&quot;&gt;3-Salir del juego&lt;/font&gt;" style="text;html=1;align=center;verticalAlign=middle;whiteSpace=wrap;rounded=0;" vertex="1" parent="1">
          <mxGeometry x="-693.75" y="685" width="162.5" height="30" as="geometry" />
        </mxCell>
        <mxCell id="-7v5t3_Li5tCfErxdhm0-19" value="" style="endArrow=classic;html=1;rounded=0;exitX=0;exitY=0.5;exitDx=0;exitDy=0;entryX=0.541;entryY=0.025;entryDx=0;entryDy=0;entryPerimeter=0;" edge="1" parent="1" source="-7v5t3_Li5tCfErxdhm0-3" target="-7v5t3_Li5tCfErxdhm0-8">
          <mxGeometry width="50" height="50" relative="1" as="geometry">
            <mxPoint x="-410" y="420" as="sourcePoint" />
            <mxPoint x="-360" y="370" as="targetPoint" />
          </mxGeometry>
        </mxCell>
        <mxCell id="-7v5t3_Li5tCfErxdhm0-20" value="" style="endArrow=classic;html=1;rounded=0;entryX=0.472;entryY=0.008;entryDx=0;entryDy=0;entryPerimeter=0;" edge="1" parent="1" source="-7v5t3_Li5tCfErxdhm0-1" target="-7v5t3_Li5tCfErxdhm0-8">
          <mxGeometry width="50" height="50" relative="1" as="geometry">
            <mxPoint x="-410" y="420" as="sourcePoint" />
            <mxPoint x="-600" y="510" as="targetPoint" />
          </mxGeometry>
        </mxCell>
        <mxCell id="-7v5t3_Li5tCfErxdhm0-22" value="" style="endArrow=classic;html=1;rounded=0;exitX=0.5;exitY=1;exitDx=0;exitDy=0;entryX=0.407;entryY=0.011;entryDx=0;entryDy=0;entryPerimeter=0;" edge="1" parent="1" source="-7v5t3_Li5tCfErxdhm0-4" target="-7v5t3_Li5tCfErxdhm0-11">
          <mxGeometry width="50" height="50" relative="1" as="geometry">
            <mxPoint x="-490" y="520" as="sourcePoint" />
            <mxPoint x="-440" y="470" as="targetPoint" />
          </mxGeometry>
        </mxCell>
        <mxCell id="-7v5t3_Li5tCfErxdhm0-23" value="" style="endArrow=classic;html=1;rounded=0;exitX=0.5;exitY=1;exitDx=0;exitDy=0;entryX=0.79;entryY=-0.033;entryDx=0;entryDy=0;entryPerimeter=0;" edge="1" parent="1" source="-7v5t3_Li5tCfErxdhm0-5" target="-7v5t3_Li5tCfErxdhm0-12">
          <mxGeometry width="50" height="50" relative="1" as="geometry">
            <mxPoint x="-490" y="520" as="sourcePoint" />
            <mxPoint x="-440" y="470" as="targetPoint" />
          </mxGeometry>
        </mxCell>
        <mxCell id="-7v5t3_Li5tCfErxdhm0-24" value="" style="endArrow=classic;html=1;rounded=0;exitX=0;exitY=0.5;exitDx=0;exitDy=0;entryX=1;entryY=1;entryDx=0;entryDy=0;" edge="1" parent="1" source="-7v5t3_Li5tCfErxdhm0-15" target="-7v5t3_Li5tCfErxdhm0-8">
          <mxGeometry width="50" height="50" relative="1" as="geometry">
            <mxPoint x="-490" y="520" as="sourcePoint" />
            <mxPoint x="-440" y="470" as="targetPoint" />
          </mxGeometry>
        </mxCell>
      </root>
    </mxGraphModel>
  </diagram>
</mxfile>
